<svg xmlns="http://www.w3.org/2000/svg" xmlns:xlink="http://www.w3.org/1999/xlink" viewBox="0 0 400 400" width="400" height="400" preserveAspectRatio="xMidYMid meet" style="width: 100%; height: 100%; transform: translate3d(0px, 0px, 0px); content-visibility: visible;"><defs><clipPath id="__lottie_element_123"><rect width="400" height="400" x="0" y="0"></rect></clipPath></defs><g clip-path="url(#__lottie_element_123)"><g transform="matrix(1.6103237867355347,0,0,1.6103237867355347,62.269386291503906,86.97734069824219)" opacity="1" style="display: block;"><path stroke-linecap="butt" stroke-linejoin="miter" fill-opacity="0" stroke-miterlimit="4" stroke="rgb(229,9,20)" stroke-opacity="1" stroke-width="12" d=" M3.57,132.71 C3.57,132.71 78.23,5.8 78.23,5.8 C81.5,0.25 89.53,0.25 92.8,5.8 C92.8,5.8 167.46,132.71 167.46,132.71 C170.78,138.34 166.71,145.45 160.18,145.45 C160.18,145.45 10.85,145.45 10.85,145.45 C4.31,145.45 0.25,138.34 3.57,132.71z"></path><g opacity="1" transform="matrix(1,0,0,1,85.51300048828125,72.8479995727539)"><path fill="rgb(0,0,0)" fill-opacity="0" d=" M-81.947998046875,59.861000061035156 C-81.947998046875,59.861000061035156 -7.283999919891357,-67.04399871826172 -7.283999919891357,-67.04399871826172 C-4.015999794006348,-72.5979995727539 4.017000198364258,-72.5979995727539 7.283999919891357,-67.04399871826172 C7.283999919891357,-67.04399871826172 81.947998046875,59.861000061035156 81.947998046875,59.861000061035156 C85.26300048828125,65.49500274658203 81.20099639892578,72.5979995727539 74.66400146484375,72.5979995727539 C74.66400146484375,72.5979995727539 -74.66400146484375,72.5979995727539 -74.66400146484375,72.5979995727539 C-81.19999694824219,72.5979995727539 -85.26300048828125,65.49500274658203 -81.947998046875,59.861000061035156z"></path></g></g><g transform="matrix(0.8934844136238098,0,0,0.8934844136238098,200.8986358642578,206.26976013183594)" opacity="1" style="display: block;"><g opacity="1" transform="matrix(1,0,0,1,0,0)"><path stroke-linecap="round" stroke-linejoin="miter" fill-opacity="0" stroke-miterlimit="4" stroke="rgb(229,9,20)" stroke-opacity="1" stroke-width="33" d=" M-1,80 C-1,80 -1,80 -1,80"></path></g></g><g transform="matrix(0.8934844136238098,0,0,0.8934844136238098,200.8986358642578,206.26976013183594)" opacity="1" style="display: block;"><g opacity="1" transform="matrix(1,0,0,1,0,0)"><path stroke-linecap="round" stroke-linejoin="miter" fill-opacity="0" stroke-miterlimit="4" stroke="rgb(229,9,20)" stroke-opacity="1" stroke-width="28" d=" M-1,33.000999450683594 C-1,0.2849999964237213 -1,-37.5 -1,-37.5"></path></g></g></g></svg>