<svg xmlns="http://www.w3.org/2000/svg" xmlns:xlink="http://www.w3.org/1999/xlink" viewBox="0 0 2400 2380" width="2400" height="2380" preserveAspectRatio="xMidYMid meet" style="width: 100%; height: 100%; transform: translate3d(0px, 0px, 0px); content-visibility: visible;">
  <defs>
    <clipPath id="__lottie_element_26">
      <rect width="2400" height="2380" x="0" y="0"></rect>
    </clipPath>
    <filter id="__lottie_element_29" x="-100%" y="-100%" width="300%" height="300%">
      <feGaussianBlur result="filter_result_0" stdDeviation="90 90" edgeMode="duplicate"></feGaussianBlur>
    </filter>
    <filter id="__lottie_element_32" x="-100%" y="-100%" width="300%" height="300%">
      <feGaussianBlur result="filter_result_0" stdDeviation="90 90" edgeMode="duplicate"></feGaussianBlur>
    </filter>
    <filter id="__lottie_element_35" x="-100%" y="-100%" width="300%" height="300%">
      <feGaussianBlur result="filter_result_0" stdDeviation="90 90" edgeMode="duplicate"></feGaussianBlur>
    </filter>
  </defs>
  <g clip-path="url(#__lottie_element_26)">
    <g filter="url(#__lottie_element_29)" transform="matrix(-1.0098531246185303,1.2828689813613892,-1.2852935791015625,-1.0117617845535278,2145.99755859375,1080.8099365234375)" opacity="1" style="display: block;">
      <g opacity="1" transform="matrix(1,0,0,1,0,0)">
        <path fill="rgb(182, 1, 187)" fill-opacity=".6" d=" M387.3320007324219,16.340999603271484 C363.11199951171875,16.340999603271484 338.9049987792969,18.774999618530273 315.3840026855469,23.572999954223633 C292.4580078125,28.25200080871582 269.9119873046875,35.23099899291992 248.3719940185547,44.316001892089844 C227.21800231933594,53.23699951171875 206.81500244140625,64.27899932861328 187.72999572753906,77.13600158691406 C168.8249969482422,89.87100219726562 151.0489959716797,104.49700164794922 134.89599609375,120.60399627685547 C118.73899841308594,136.71400451660156 104.072998046875,154.43800354003906 91.3030014038086,173.28700256347656 C78.41000366210938,192.3159942626953 67.33599853515625,212.66000366210938 58.38800048828125,233.75399780273438 C49.2760009765625,255.23399353027344 42.277000427246094,277.7170104980469 37.58599853515625,300.57501220703125 C32.77399826049805,324.0270080566406 30.33300018310547,348.16400146484375 30.33300018310547,372.3160095214844 C30.33300018310547,396.4679870605469 32.77399826049805,420.6059875488281 37.58599853515625,444.0589904785156 C42.277000427246094,466.9169921875 49.2760009765625,489.39801025390625 58.38800048828125,510.8800048828125 C67.33599853515625,531.9749755859375 78.41000366210938,552.3189697265625 91.3030014038086,571.3480224609375 C104.0739974975586,590.197021484375 118.73999786376953,607.9229736328125 134.89599609375,624.031982421875 C151.05099487304688,640.1409912109375 168.82699584960938,654.7650146484375 187.72999572753906,667.4990234375 C206.8159942626953,680.3560180664062 227.218994140625,691.3980102539062 248.3719940185547,700.3200073242188 C269.9179992675781,709.406982421875 292.4639892578125,716.385986328125 315.3840026855469,721.06298828125 C338.9049987792969,725.8610229492188 363.11199951171875,728.2949829101562 387.3320007324219,728.2949829101562 C411.552001953125,728.2949829101562 435.7590026855469,725.8610229492188 459.2799987792969,721.06298828125 C482.20098876953125,716.385986328125 504.74798583984375,709.406005859375 526.2930297851562,700.3200073242188 C547.4450073242188,691.3989868164062 567.8480224609375,680.3569946289062 586.9349975585938,667.4990234375 C605.8369750976562,654.7670288085938 623.6129760742188,640.1420288085938 639.77001953125,624.031982421875 C655.926025390625,607.9219970703125 670.5919799804688,590.197021484375 683.3619995117188,571.3480224609375 C696.2559814453125,552.3170166015625 707.3309936523438,531.9730224609375 716.2780151367188,510.8800048828125 C725.3900146484375,489.39599609375 732.3889770507812,466.9150085449219 737.0800170898438,444.0589904785156 C741.8920288085938,420.6059875488281 744.3330078125,396.4679870605469 744.3330078125,372.3160095214844 C744.3330078125,348.16400146484375 741.8920288085938,324.0270080566406 737.0800170898438,300.57501220703125 C732.3889770507812,277.718994140625 725.3900146484375,255.23699951171875 716.2780151367188,233.75399780273438 C707.3300170898438,212.66200256347656 696.2559814453125,192.31700134277344 683.3619995117188,173.28700256347656 C670.5910034179688,154.43699645996094 655.9249877929688,136.71299743652344 639.77001953125,120.60399627685547 C623.614990234375,104.49500274658203 605.8389892578125,89.87100219726562 586.9349975585938,77.13600158691406 C567.8489990234375,64.27799987792969 547.4459838867188,53.236000061035156 526.2930297851562,44.316001892089844 C504.7539978027344,35.23099899291992 482.2070007324219,28.25200080871582 459.2799987792969,23.572999954223633 C435.7590026855469,18.774999618530273 411.552001953125,16.340999603271484 387.3320007324219,16.340999603271484z M416.4989929199219,825.1680297851562 C402.29400634765625,825.1680297851562 387.96600341796875,824.4500122070312 373.91400146484375,823.0369873046875 C360.0690002441406,821.64501953125 346.156005859375,819.5419921875 332.55999755859375,816.7860107421875 C305.8179931640625,811.364990234375 279.5140075683594,803.2769775390625 254.3780059814453,792.7449951171875 C229.69900512695312,782.405029296875 205.89599609375,769.6060180664062 183.6300048828125,754.7050170898438 C161.5760040283203,739.9450073242188 140.83799743652344,722.9949951171875 121.98999786376953,704.323974609375 C103.14099884033203,685.6519775390625 86.02899932861328,665.1079711914062 71.13099670410156,643.2630004882812 C56.0890007019043,621.2059936523438 43.167999267578125,597.6270141601562 32.72999954223633,573.1799926757812 C22.099000930786133,548.281005859375 13.934000015258789,522.2249755859375 8.461999893188477,495.7340087890625 C5.679999828338623,482.2650146484375 3.555000066757202,468.4830017089844 2.1500000953674316,454.7690124511719 C0.7229999899864197,440.85198974609375 0,426.6600036621094 0,412.5849914550781 C0,398.510986328125 0.7229999899864197,384.3169860839844 2.1500000953674316,370.3999938964844 C3.555999994277954,356.68499755859375 5.679999828338623,342.90301513671875 8.461999893188477,329.4339904785156 C13.934000015258789,302.9429931640625 22.099000930786133,276.8869934082031 32.72999954223633,251.98800659179688 C43.16899871826172,227.53900146484375 56.0890007019043,203.9600067138672 71.13099670410156,181.9040069580078 C86.02899932861328,160.05999755859375 103.13999938964844,139.51499938964844 121.98999786376953,120.84200286865234 C140.84100341796875,102.16999816894531 161.5780029296875,85.22000122070312 183.6300048828125,70.46299743652344 C205.89500427246094,55.56100082397461 229.69900512695312,42.762001037597656 254.3780059814453,32.422000885009766 C279.510986328125,21.892000198364258 305.8160095214844,13.803000450134277 332.55999755859375,8.381999969482422 C346.1610107421875,5.625999927520752 360.0740051269531,3.5220000743865967 373.91400146484375,2.130000114440918 C387.96600341796875,0.7170000076293945 402.29400634765625,0 416.4989929199219,0 C430.7040100097656,0 445.0320129394531,0.7170000076293945 459.0840148925781,2.130000114440918 C472.92401123046875,3.5220000743865967 486.8380126953125,5.625999927520752 500.4389953613281,8.381999969482422 C527.1829833984375,13.803000450134277 553.4879760742188,21.892000198364258 578.6209716796875,32.422000885009766 C603.2999877929688,42.762001037597656 627.10302734375,55.56100082397461 649.3690185546875,70.46299743652344 C671.4199829101562,85.22000122070312 692.1589965820312,102.16899871826172 711.010009765625,120.84200286865234 C729.8590087890625,139.51499938964844 746.9710083007812,160.05999755859375 761.8690185546875,181.9040069580078 C776.9110107421875,203.9600067138672 789.8309936523438,227.53900146484375 800.27001953125,251.98800659179688 C810.9010009765625,276.8869934082031 819.0650024414062,302.9429931640625 824.5380249023438,329.4339904785156 C827.3200073242188,342.90301513671875 829.4450073242188,356.6860046386719 830.8499755859375,370.3999938964844 C832.2769775390625,384.3169860839844 833,398.510986328125 833,412.5849914550781 C833,426.65899658203125 832.2769775390625,440.85198974609375 830.8499755859375,454.7690124511719 C829.4450073242188,468.48199462890625 827.3200073242188,482.2640075683594 824.5380249023438,495.7340087890625 C819.0659790039062,522.2249755859375 810.9010009765625,548.281005859375 800.27001953125,573.1799926757812 C789.8319702148438,597.6270141601562 776.9110107421875,621.2059936523438 761.8690185546875,643.2630004882812 C746.9710083007812,665.1079711914062 729.8590087890625,685.6519775390625 711.010009765625,704.323974609375 C692.1610107421875,722.9949951171875 671.4219970703125,739.9459838867188 649.3690185546875,754.7050170898438 C627.10302734375,769.6060180664062 603.2999877929688,782.405029296875 578.6209716796875,792.7449951171875 C553.4849853515625,803.2769775390625 527.1810302734375,811.364990234375 500.4389953613281,816.7860107421875 C486.8429870605469,819.5419921875 472.9289855957031,821.64501953125 459.0840148925781,823.0369873046875 C445.0320129394531,824.4500122070312 430.7040100097656,825.1680297851562 416.4989929199219,825.1680297851562z"></path>
      </g>
      <g opacity="1" transform="matrix(1,0,0,1,0,0)"></g>
    </g>
    <g filter="url(#__lottie_element_32)" transform="matrix(1.6326531171798706,0,0,1.6357388496398926,1242.8194580078125,1044.700927734375)" opacity="1" style="display: block;">
      <g opacity="1" transform="matrix(1,0,0,1,0,0)">
        <path fill="rgb(170, 131, 176)" fill-opacity=".6" d=" M0,-262 C144.87374877929688,-262 262.5,-144.59779357910156 262.5,0 C262.5,144.59779357910156 144.87374877929688,262 0,262 C-144.87374877929688,262 -262.5,144.59779357910156 -262.5,0 C-262.5,-144.59779357910156 -144.87374877929688,-262 0,-262z"></path>
      </g>
      <g opacity="1" transform="matrix(1,0,0,1,0,0)"></g>
    </g>
    <g filter="url(#__lottie_element_35)" transform="matrix(1.6326531171798706,0,0,1.6357388496398926,1000.2557983398438,1553.292724609375)" opacity="1" style="display: block;">
      <g opacity="1" transform="matrix(1,0,0,1,0,0)">
        <path fill="rgb(147, 0, 255)" fill-opacity=".6" d=" M0,-158.87449645996094 C88.0280532836914,-158.87449645996094 159.5,-87.68283081054688 159.5,0 C159.5,87.68283081054688 88.0280532836914,158.87449645996094 0,158.87449645996094 C-88.0280532836914,158.87449645996094 -159.5,87.68283081054688 -159.5,0 C-159.5,-87.68283081054688 -88.0280532836914,-158.87449645996094 0,-158.87449645996094z"></path>
      </g>
      <g opacity="1" transform="matrix(1,0,0,1,0,0)"></g>
    </g>
  </g>
</svg>